PathFileType	4	(X/Y/Z)	Run_500 03
DataRate	CameraRate	NumFrames	NumMarkers	Units	OrigDataRate	OrigDataStartFrame	OrigNumFrames
100	100	4	45	mm	100	326	137
Frame#	Time	RASI			LPSI			RPSI			RTH1			RTH2			RTH3			LTH1			LTH2			LTH3			RTB1			RTB2			RTB3			RLMAL			RMMAL			LTB1			LTB2			LTB3			RCAL			RTOE			RMT5			LCAL			LTOE			LMT5			LACR			RACR			CLAV			C7			LPSH			RUA1			RUA2			RUA3			RLEL			RMEL			LUA1			LUA2			LUA3			LLEL			LMEL			RFAsuperior			RFAradius			RFAulna			LFAsuperior			LFAradius			LFAulna			LASI		
		X1	Y1	Z1	X2	Y2	Z2	X3	Y3	Z3	X4	Y4	Z4	X5	Y5	Z5	X6	Y6	Z6	X7	Y7	Z7	X8	Y8	Z8	X9	Y9	Z9	X10	Y10	Z10	X11	Y11	Z11	X12	Y12	Z12	X13	Y13	Z13	X14	Y14	Z14	X15	Y15	Z15	X16	Y16	Z16	X17	Y17	Z17	X18	Y18	Z18	X19	Y19	Z19	X20	Y20	Z20	X21	Y21	Z21	X22	Y22	Z22	X23	Y23	Z23	X24	Y24	Z24	X25	Y25	Z25	X26	Y26	Z26	X27	Y27	Z27	X28	Y28	Z28	X29	Y29	Z29	X30	Y30	Z30	X31	Y31	Z31	X32	Y32	Z32	X33	Y33	Z33	X34	Y34	Z34	X35	Y35	Z35	X36	Y36	Z36	X37	Y37	Z37	X38	Y38	Z38	X39	Y39	Z39	X40	Y40	Z40	X41	Y41	Z41	X42	Y42	Z42	X43	Y43	Z43	X44	Y44	Z44	X45	Y45	Z45	

326	  3.260000	904.180525	1041.450034	-217.222150	731.879123	1089.456427	-369.599288	736.091869	1086.530191	-280.456723	931.811328	830.796796	-176.686182	1036.420600	833.055077	-210.309337	1050.403439	716.747353	-216.248590	729.124273	831.333831	-490.040886	768.702650	706.933168	-479.842043	688.452517	626.174221	-463.061933	1058.867384	523.643615	-273.670221	991.839809	517.028403	-223.632017	909.276732	415.436583	-256.941015	797.905371	370.712738	-228.873896	822.353142	364.931918	-310.541291	628.570165	395.187879	-415.980949	500.341967	361.722851	-425.301220	504.576016	251.815938	-380.181599	732.478792	384.269125	-293.233771	887.338229	225.323992	-257.682742	825.003840	262.920451	-188.695407	333.322333	189.502009	-314.044030	493.398584	 62.929982	-341.872505	438.028679	 61.993023	-407.107634	891.400174	1543.733088	-487.257156	873.149635	1521.001152	-168.032414	947.411138	1465.037385	-300.870355	839.464807	1560.609170	-329.351749	812.098685	1503.194463	-507.913674	778.948001	1405.096739	-80.691295	690.954398	1383.522485	-106.499455	671.416120	1335.473988	-57.492469	654.042471	1271.467981	-29.136953	629.023377	1263.605626	-113.209521	825.729407	1412.670511	-567.229126	766.879847	1329.077586	-558.734413	797.368090	1287.421890	-614.969239	811.774709	1211.810959	-635.597658	767.249338	1196.589506	-553.963327	676.368589	1193.948325	-36.680800	846.700790	1112.028966	-99.708895	808.731725	1064.793958	-69.584863	885.135249	1182.464448	-577.807558	996.741330	1278.793538	-486.081795	1024.963261	1217.174266	-497.032953	886.111025	1027.862984	-451.165780	
327	  3.270000	907.826685	1051.395269	-217.651566	737.773751	1095.453428	-372.846706	740.786268	1093.270421	-283.981783	937.420690	842.120118	-176.667726	1041.681645	845.360613	-208.558738	1055.544432	728.572755	-215.891912	727.615294	841.619552	-490.865498	759.378316	716.103095	-478.527302	673.213411	641.335942	-463.246980	1082.782293	529.010546	-270.737430	1016.725859	513.890906	-221.351441	947.897173	402.389297	-255.921072	842.873736	343.041809	-229.149391	868.753592	341.272309	-310.730051	602.368873	412.446845	-419.010305	473.142315	380.172710	-424.949969	478.611760	267.658080	-384.911497	776.829574	349.315158	-293.740045	949.711429	209.983845	-258.771359	882.455751	238.384823	-189.752858	313.616003	214.635994	-316.884826	451.169666	 65.697876	-344.460586	394.755198	 69.335286	-407.117193	892.190828	1552.727218	-484.673601	868.022549	1529.048705	-167.255541	945.194590	1474.097492	-298.121813	837.803002	1568.028224	-328.349847	813.695855	1511.574427	-507.565364	772.589552	1416.572313	-81.090758	685.584179	1394.916300	-109.246481	663.828261	1348.081901	-60.247820	644.957123	1284.068825	-31.459105	622.020908	1275.902846	-115.907391	829.643362	1422.001757	-566.638032	771.757867	1338.493595	-558.855367	803.128500	1297.351325	-614.977428	819.401378	1220.762709	-635.172086	772.090404	1205.606136	-554.416299	667.542471	1206.686764	-38.101816	840.124968	1126.078176	-97.823029	801.892214	1078.298515	-68.946330	891.317509	1194.245190	-573.612941	995.908148	1295.169704	-478.656516	1026.558235	1234.328878	-487.708467	893.783677	1034.022778	-449.500154	
328	  3.280000	911.042322	1060.382841	-218.092672	742.681382	1101.790624	-375.397231	745.126884	1099.688243	-287.123572	940.028501	850.239100	-177.205415	1044.661471	853.175316	-206.247346	1057.902592	736.529389	-216.124226	726.423479	852.719838	-492.130750	751.172415	726.216506	-478.422048	661.180798	656.904501	-463.197814	1104.049537	532.119728	-266.894549	1039.972396	508.704529	-218.549524	985.994675	389.283819	-254.777760	889.191652	316.193093	-229.771721	916.045846	318.611651	-310.999167	581.930073	429.894898	-421.372711	451.601682	399.175916	-425.415677	456.390261	284.972499	-389.022013	823.659590	315.720182	-294.807796	1010.756720	196.539748	-259.619315	940.041915	215.874469	-190.880683	298.200343	242.141511	-319.696659	415.105518	 71.020269	-347.973966	355.605959	 84.032152	-407.398527	892.503277	1560.819862	-482.087786	864.010142	1536.102387	-166.611333	943.482310	1481.919528	-295.554308	836.436748	1574.499667	-327.359922	814.751422	1519.228180	-506.924228	767.423179	1426.748101	-81.364523	681.172446	1405.105641	-111.985612	657.322336	1359.682725	-62.860494	637.067502	1295.715611	-33.421138	616.580303	1286.745824	-118.209043	833.324642	1430.978188	-566.375392	775.758085	1348.158613	-560.326842	808.498117	1306.983115	-615.440962	825.703865	1229.643542	-635.486081	775.599169	1214.407279	-556.018425	659.953254	1218.399309	-39.031946	834.640578	1139.048533	-95.458507	796.225735	1090.705343	-67.790824	895.620344	1204.798562	-570.473472	994.129600	1308.656917	-472.170702	1026.525483	1248.385937	-479.742166	900.575967	1040.901076	-448.616515	
329	  3.290000	913.664171	1067.546640	-218.961179	746.747115	1108.201167	-377.661194	748.874793	1105.535580	-289.949946	939.486955	854.244639	-178.834498	1045.030566	856.551649	-204.089156	1057.684582	740.544018	-216.938891	725.468309	863.810099	-493.817110	744.972123	736.090272	-479.905941	652.900161	670.629013	-463.274078	1122.142060	532.894835	-262.515644	1061.266286	501.313023	-215.623193	1022.899315	376.237668	-253.712708	936.117012	290.611295	-230.777452	963.473885	297.355420	-311.458251	566.756361	445.293616	-422.462951	435.305613	418.083811	-426.451199	436.416404	303.433830	-391.183828	871.987828	284.035840	-296.555556	1070.078027	184.886036	-260.285515	996.915568	195.565096	-192.026837	282.763254	270.928604	-321.756671	383.730912	 80.904133	-350.805610	321.464690	105.814652	-407.632847	892.224609	1568.028495	-479.457337	861.143021	1542.003410	-165.810473	942.403466	1488.324374	-293.092288	835.336986	1579.773551	-326.309686	815.121960	1525.910030	-505.750548	763.449367	1435.316549	-81.236297	677.750268	1413.846014	-114.143195	652.024006	1369.800966	-64.944555	630.406990	1306.072537	-34.846233	612.502243	1295.930786	-119.955203	836.107828	1439.170625	-565.927760	778.822229	1357.175136	-562.530362	813.306068	1315.958122	-616.370426	830.715352	1238.283142	-636.620593	777.938046	1222.635599	-558.782013	653.568063	1228.779755	-39.357840	830.097181	1150.421002	-92.598721	791.599173	1101.632017	-65.806009	898.390531	1213.965089	-568.798256	991.989808	1318.986128	-466.827088	1025.482262	1259.089520	-473.590695	906.053925	1048.122214	-449.158737	
